<svg xmlns="http://www.w3.org/2000/svg" width="269.605" height="302.049" id="android"><path fill="#a4c639" d="M92.283 183.493a18.85 18.85 0 0 1 18.849 18.849v80.859a18.85 18.85 0 0 1-37.7 0v-80.859a18.849 18.849 0 0 1 18.848-18.848Z"></path><path fill="#a4c639" d="M49.249 86.278a25.044 25.044 0 0 0-.116 2.168v122.509a23.538 23.538 0 0 0 23.375 23.789h124.585a23.539 23.539 0 0 0 23.376-23.789V88.446c0-.731-.026-1.456-.087-2.168Z"></path><path fill="#a4c639" d="M177.322 183.493a18.85 18.85 0 0 1 18.849 18.849v80.859a18.85 18.85 0 0 1-37.7 0v-80.859a18.849 18.849 0 0 1 18.848-18.848ZM18.849 97.18a18.849 18.849 0 0 1 18.849 18.848v80.859a18.85 18.85 0 1 1-37.7 0v-80.859a18.849 18.849 0 0 1 18.849-18.851Zm231.907 0a18.849 18.849 0 0 1 18.849 18.848v80.859a18.85 18.85 0 1 1-37.7 0v-80.859a18.851 18.851 0 0 1 18.849-18.851ZM49.802 78.228c.524-37.63 33.368-68.483 75.527-72.549h18.943c42.162 4.067 75 34.922 75.527 72.549Z"></path><path fill="none" stroke="#a4c639" stroke-linecap="round" stroke-linejoin="round" stroke-width="3" d="m56.358 2.049 19.883 34.44m137.008-34.44-19.884 34.44"></path><path fill="#fff" d="M109.48 44.507a9.754 9.754 0 0 1-19.5.053v-.053a9.754 9.754 0 0 1 19.5-.053Zm72.793 0a9.754 9.754 0 0 1-19.5.053v-.053a9.754 9.754 0 0 1 19.5-.053Z"></path></svg>