<svg xmlns="http://www.w3.org/2000/svg" viewBox="0 0 24 24" id="dominos-pizza"><path fill="#E31837" d="M23.39 6.173 17.903.617a2.065 2.065 0 0 0-2.945 0L8.043 7.62l8.431 8.538 6.916-7.002a2.129 2.129 0 0 0 0-2.983zm-5.467 2.958a2.062 2.062 0 0 1-2.94 0 2.122 2.122 0 0 1 0-2.978 2.06 2.06 0 0 1 2.94 0c.405.409.609.95.609 1.489 0 .538-.204 1.079-.609 1.489z"></path><path fill="#0078AE" d="M.61 15.144a2.128 2.128 0 0 0 0 2.982l5.521 5.295c.806.773 2.069.77 2.871-.007l6.952-6.732-8.431-8.537L.61 15.144zm5.371 2.95a2.07 2.07 0 0 1-2.942 0 2.11 2.11 0 0 1-.608-1.488c0-.539.202-1.079.608-1.491a2.063 2.063 0 0 1 2.941 0c.406.412.608.951.607 1.49a2.1 2.1 0 0 1-.606 1.489zm3.162-2.892a2.058 2.058 0 0 1 2.939 0c.407.41.61.949.61 1.489 0 .538-.203 1.078-.61 1.488a2.069 2.069 0 0 1-1.469.617 2.064 2.064 0 0 1-1.47-.617 2.114 2.114 0 0 1-.609-1.488 2.107 2.107 0 0 1 .609-1.489z"></path></svg>